<svg xmlns="http://www.w3.org/2000/svg" xml:space="preserve" width="1500" height="1500" stroke="#000" data-id="lg_TwyoIR4Pf7cX8cnv7A" data-version="1" viewBox="0 0 1500 1500"><path stroke="transparent" d="M0 0h1500v1500H0z"/><g data-padding="20"><g transform="translate(-630.597 -626.932)scale(1.78238)"><rect width="366.993" height="495.24" x="191.083" y="113.402" fill="none" rx="0" ry="0" transform="translate(398.76 431.91)"/><path fill="#fff" d="M695.02 934.392q-23.54 0-39.27-7.38t-24.82-21.61q-9.1-14.23-12.95-34.67t-3.85-46.55v-33.59h54.35v37.87q0 30.39 5.14 43.66 5.13 13.27 20.33 13.27 10.27 0 15.51-4.82 5.25-4.81 7.06-15.41 1.82-10.59 1.82-27.71 0-21.18-8.88-38.73t-26.85-36.38l-27.82-28.68q-11.56-11.98-20.87-25.46t-14.76-30.07q-5.46-16.58-5.46-37.13 0-29.74 7.27-50.29 7.28-20.54 24.61-31.13 17.34-10.6 47.51-10.6 22.69 0 37.34 6.96 14.66 6.95 22.9 20.33 8.24 13.37 11.66 32.53 3.43 19.15 3.43 43.76v23.32h-52.86v-26.96q0-17.12-1.82-28.46t-6.74-17.01-14.34-5.67q-8.98 0-14.55 3.95-5.56 3.96-8.02 12.2t-2.46 21.29q0 11.77 2.99 20.33 3 8.56 9.2 16.48 6.21 7.92 15.41 17.76l31.03 33.6q22.26 23.97 34.67 49.86 12.41 25.9 12.41 57.78 0 33.81-7.28 56.82-7.27 23-24.39 34.77t-46.65 11.77"/><path fill="#fff" d="M823.14 930.112h-57.78v-376.63h57.35v173.34l57.35-173.34h59.28l-62.49 185.75 67.41 190.88H883.7l-60.56-175.9Z"/><g stroke-width="45" transform="translate(400 367.67)"><path d="m150.382 136.825 448.394 448.394"/>undefined
        undefined</g></g><path fill="transparent" stroke="transparent" stroke-width="1.866" d="M332.09 250h835.82v1000H332.09z"/></g></svg>